<mxfile host="app.diagrams.net" modified="2020-11-12T13:21:13.587Z" agent="5.0 (Windows NT 10.0; Win64; x64) AppleWebKit/537.36 (KHTML, like Gecko) Chrome/86.0.4240.193 Safari/537.36" etag="CLYHc6xoK1d5RBIL98aJ" version="13.9.7" type="github">
  <diagram id="aA-QaOl3buLaw9nU_oUb" name="Page-1">
    <mxGraphModel dx="1138" dy="635" grid="1" gridSize="10" guides="1" tooltips="1" connect="1" arrows="1" fold="1" page="1" pageScale="1" pageWidth="827" pageHeight="1169" math="0" shadow="0">
      <root>
        <mxCell id="0" />
        <mxCell id="1" parent="0" />
        <mxCell id="_7fg3Liive27QqCO996e-14" style="edgeStyle=orthogonalEdgeStyle;rounded=0;orthogonalLoop=1;jettySize=auto;html=1;exitX=1;exitY=0.5;exitDx=0;exitDy=0;exitPerimeter=0;entryX=0;entryY=0.5;entryDx=0;entryDy=0;" edge="1" parent="1" source="_7fg3Liive27QqCO996e-1" target="_7fg3Liive27QqCO996e-13">
          <mxGeometry relative="1" as="geometry" />
        </mxCell>
        <mxCell id="_7fg3Liive27QqCO996e-1" value="ELK" style="shape=cylinder3;whiteSpace=wrap;html=1;boundedLbl=1;backgroundOutline=1;size=15;" vertex="1" parent="1">
          <mxGeometry x="330" y="320" width="60" height="80" as="geometry" />
        </mxCell>
        <mxCell id="_7fg3Liive27QqCO996e-2" value="- Chaque tweet associé aux tags auxquels il est rattaché&lt;br&gt;- Vérifier si chaque tweet existe déjà" style="text;html=1;strokeColor=none;fillColor=none;align=center;verticalAlign=middle;whiteSpace=wrap;rounded=0;" vertex="1" parent="1">
          <mxGeometry x="280" y="430" width="160" height="20" as="geometry" />
        </mxCell>
        <mxCell id="_7fg3Liive27QqCO996e-11" style="edgeStyle=orthogonalEdgeStyle;rounded=0;orthogonalLoop=1;jettySize=auto;html=1;exitX=1;exitY=0.5;exitDx=0;exitDy=0;entryX=0;entryY=0.5;entryDx=0;entryDy=0;" edge="1" parent="1" source="_7fg3Liive27QqCO996e-5" target="_7fg3Liive27QqCO996e-9">
          <mxGeometry relative="1" as="geometry" />
        </mxCell>
        <mxCell id="_7fg3Liive27QqCO996e-5" value="Input" style="rounded=0;whiteSpace=wrap;html=1;" vertex="1" parent="1">
          <mxGeometry x="40" y="345" width="50" height="30" as="geometry" />
        </mxCell>
        <mxCell id="_7fg3Liive27QqCO996e-12" style="edgeStyle=orthogonalEdgeStyle;rounded=0;orthogonalLoop=1;jettySize=auto;html=1;" edge="1" parent="1" source="_7fg3Liive27QqCO996e-9" target="_7fg3Liive27QqCO996e-1">
          <mxGeometry relative="1" as="geometry" />
        </mxCell>
        <mxCell id="_7fg3Liive27QqCO996e-9" value="Scrapping twitter" style="rounded=0;whiteSpace=wrap;html=1;" vertex="1" parent="1">
          <mxGeometry x="160" y="340" width="100" height="40" as="geometry" />
        </mxCell>
        <mxCell id="_7fg3Liive27QqCO996e-16" style="edgeStyle=orthogonalEdgeStyle;rounded=0;orthogonalLoop=1;jettySize=auto;html=1;" edge="1" parent="1" source="_7fg3Liive27QqCO996e-13" target="_7fg3Liive27QqCO996e-15">
          <mxGeometry relative="1" as="geometry" />
        </mxCell>
        <mxCell id="_7fg3Liive27QqCO996e-13" value="Analyse de sentiments" style="rounded=0;whiteSpace=wrap;html=1;" vertex="1" parent="1">
          <mxGeometry x="470" y="340" width="100" height="40" as="geometry" />
        </mxCell>
        <mxCell id="_7fg3Liive27QqCO996e-15" value="ELK" style="shape=cylinder3;whiteSpace=wrap;html=1;boundedLbl=1;backgroundOutline=1;size=15;" vertex="1" parent="1">
          <mxGeometry x="630" y="320" width="60" height="80" as="geometry" />
        </mxCell>
        <mxCell id="_7fg3Liive27QqCO996e-17" value="- Stocker les erésultats d&#39;analyse" style="text;html=1;strokeColor=none;fillColor=none;align=center;verticalAlign=middle;whiteSpace=wrap;rounded=0;" vertex="1" parent="1">
          <mxGeometry x="580" y="430" width="160" height="20" as="geometry" />
        </mxCell>
      </root>
    </mxGraphModel>
  </diagram>
</mxfile>
